<?xml version="1.0" encoding="UTF-8"?>
<svg xmlns="http://www.w3.org/2000/svg" viewBox="0 0 820 300" width="820" height="300">
  <rect width="100%" height="100%" fill="#fafafa"/>
  <text x="20" y="34" fill="#0b3d6d" font-family="Arial,Helvetica,sans-serif" font-size="18" font-weight="bold">K(2,k) pattern / norm G(2,k) (exact_g2k.py)</text>
  <text x="20" y="60" fill="#222222" font-family="Arial,Helvetica,sans-serif" font-size="15">Two row indices x1,x2 and k column indices y1..yk. Product over j of f(x1,yj)*f(x2,yj).</text>
  <circle cx="110" cy="140" r="20" fill="#1565c0" stroke="#ffffff" stroke-width="2"/>
  <circle cx="110" cy="240" r="20" fill="#1565c0" stroke="#ffffff" stroke-width="2"/>
  <text x="98" y="146" fill="#ffffff" font-family="Arial,Helvetica,sans-serif" font-size="14">x1</text>
  <text x="98" y="246" fill="#ffffff" font-family="Arial,Helvetica,sans-serif" font-size="14">x2</text>
  <text x="40" y="200" fill="#222222" font-family="Arial,Helvetica,sans-serif" font-size="15">rows</text>
  <circle cx="520" cy="90" r="16" fill="#ef6c00" stroke="#ffffff" stroke-width="2"/>
  <circle cx="580" cy="90" r="16" fill="#ef6c00" stroke="#ffffff" stroke-width="2"/>
  <circle cx="640" cy="90" r="16" fill="#ef6c00" stroke="#ffffff" stroke-width="2"/>
  <circle cx="700" cy="90" r="16" fill="#ef6c00" stroke="#ffffff" stroke-width="2"/>
  <circle cx="760" cy="90" r="16" fill="#ef6c00" stroke="#ffffff" stroke-width="2"/>
  <text x="512" y="94" fill="#ffffff" font-family="Arial,Helvetica,sans-serif" font-size="11">y1</text>
  <text x="572" y="94" fill="#ffffff" font-family="Arial,Helvetica,sans-serif" font-size="11">y2</text>
  <text x="632" y="94" fill="#ffffff" font-family="Arial,Helvetica,sans-serif" font-size="11">y3</text>
  <text x="692" y="94" fill="#ffffff" font-family="Arial,Helvetica,sans-serif" font-size="11">...</text>
  <text x="752" y="94" fill="#ffffff" font-family="Arial,Helvetica,sans-serif" font-size="11">yk</text>
  <line x1="130" y1="140" x2="504" y2="90" stroke="#78909c" stroke-width="1.1"/>
  <line x1="130" y1="140" x2="564" y2="90" stroke="#78909c" stroke-width="1.1"/>
  <line x1="130" y1="140" x2="624" y2="90" stroke="#78909c" stroke-width="1.1"/>
  <line x1="130" y1="140" x2="684" y2="90" stroke="#78909c" stroke-width="1.1"/>
  <line x1="130" y1="140" x2="744" y2="90" stroke="#78909c" stroke-width="1.1"/>
  <line x1="130" y1="240" x2="504" y2="90" stroke="#78909c" stroke-width="1.1"/>
  <line x1="130" y1="240" x2="564" y2="90" stroke="#78909c" stroke-width="1.1"/>
  <line x1="130" y1="240" x2="624" y2="90" stroke="#78909c" stroke-width="1.1"/>
  <line x1="130" y1="240" x2="684" y2="90" stroke="#78909c" stroke-width="1.1"/>
  <line x1="130" y1="240" x2="744" y2="90" stroke="#78909c" stroke-width="1.1"/>
  <text x="200" y="200" fill="#222222" font-family="Arial,Helvetica,sans-serif" font-size="14">Norm: ||f||_G(2,k) = ( E[ product ] )^(1/(2k))</text>
</svg>
