<svg xmlns="http://www.w3.org/2000/svg" viewBox="0 0 820 300" width="820" height="300">
  <style>
    .t { font: 15px system-ui, Segoe UI, sans-serif; fill: #222; }
    .h { font: 18px system-ui, Segoe UI, sans-serif; font-weight: 600; fill: #0b3d6d; }
    .x { fill: #1565c0; stroke: #fff; stroke-width: 2; }
    .y { fill: #ef6c00; stroke: #fff; stroke-width: 2; }
    .e { stroke: #78909c; stroke-width: 1.1; }
  </style>
  <rect width="100%" height="100%" fill="#fafafa"/>
  <text x="20" y="34" class="h">K?,? multilinear pattern (exact_g2k.py scans ???_G(2,k))</text>
  <text x="20" y="60" class="t">Left: two row indices x?,x?. Right: k column indices y?,?,y?. Each edge contributes one factor f(x?,y?).</text>
  <circle cx="110" cy="140" r="20" class="x"/>
  <circle cx="110" cy="240" r="20" class="x"/>
  <text x="96" y="146" class="t" fill="#fff">x?</text>
  <text x="96" y="246" class="t" fill="#fff">x?</text>
  <text x="40" y="200" class="t">??</text>
  <circle cx="520" cy="90" r="16" class="y"/>
  <circle cx="580" cy="90" r="16" class="y"/>
  <circle cx="640" cy="90" r="16" class="y"/>
  <circle cx="700" cy="90" r="16" class="y"/>
  <circle cx="760" cy="90" r="16" class="y"/>
  <text x="508" y="96" class="t" fill="#fff" font-size="12">y?</text>
  <text x="568" y="96" class="t" fill="#fff" font-size="12">y?</text>
  <text x="628" y="96" class="t" fill="#fff" font-size="12">y?</text>
  <text x="688" y="96" class="t" fill="#fff" font-size="12">?</text>
  <text x="748" y="96" class="t" fill="#fff" font-size="12">y?</text>
  <line x1="130" y1="140" x2="504" y2="90" class="e"/>
  <line x1="130" y1="140" x2="564" y2="90" class="e"/>
  <line x1="130" y1="140" x2="624" y2="90" class="e"/>
  <line x1="130" y1="140" x2="684" y2="90" class="e"/>
  <line x1="130" y1="140" x2="744" y2="90" class="e"/>
  <line x1="130" y1="240" x2="504" y2="90" class="e"/>
  <line x1="130" y1="240" x2="564" y2="90" class="e"/>
  <line x1="130" y1="240" x2="624" y2="90" class="e"/>
  <line x1="130" y1="240" x2="684" y2="90" class="e"/>
  <line x1="130" y1="240" x2="744" y2="90" class="e"/>
  <text x="200" y="200" class="t">?? f(x?,y?) f(x?,y?) averaged over independent uniform x?,x?,y?,?,y?.</text>
  <text x="200" y="228" class="t">Norm:  ?f?_G(2,k) = (??[?])^{1/(2k)}.</text>
</svg>
