<?xml version="1.0" encoding="UTF-8"?>
<svg xmlns="http://www.w3.org/2000/svg" viewBox="0 0 760 260" width="760" height="260">
  <rect width="100%" height="100%" fill="#fafafa"/>
  <text x="20" y="34" fill="#0b3d6d" font-family="Arial,Helvetica,sans-serif" font-size="18" font-weight="bold">Heuristic density increment (best_rectangle_lift)</text>
  <text x="20" y="60" fill="#222222" font-family="Arial,Helvetica,sans-serif" font-size="15">Search rectangles R; maximize |A cap R|/|R| vs global alpha = |A|/|Omega|.</text>
  <g transform="translate(80,90)">
    <rect x="0" y="0" width="180" height="140" fill="none" stroke="#90a4ae" stroke-width="2"/>
    <g opacity="0.35">
      <rect x="0" y="0" width="60" height="35" fill="#eceff1" stroke="#b0bec5" stroke-width="1"/>
      <rect x="60" y="0" width="60" height="35" fill="#eceff1" stroke="#b0bec5" stroke-width="1"/>
      <rect x="120" y="0" width="60" height="35" fill="#eceff1" stroke="#b0bec5" stroke-width="1"/>
      <rect x="0" y="35" width="60" height="35" fill="#eceff1" stroke="#b0bec5" stroke-width="1"/>
      <rect x="60" y="35" width="60" height="35" fill="#eceff1" stroke="#b0bec5" stroke-width="1"/>
      <rect x="120" y="35" width="60" height="35" fill="#eceff1" stroke="#b0bec5" stroke-width="1"/>
      <rect x="0" y="70" width="60" height="35" fill="#eceff1" stroke="#b0bec5" stroke-width="1"/>
      <rect x="60" y="70" width="60" height="35" fill="#eceff1" stroke="#b0bec5" stroke-width="1"/>
      <rect x="120" y="70" width="60" height="35" fill="#eceff1" stroke="#b0bec5" stroke-width="1"/>
      <rect x="0" y="105" width="60" height="35" fill="#eceff1" stroke="#b0bec5" stroke-width="1"/>
      <rect x="60" y="105" width="60" height="35" fill="#eceff1" stroke="#b0bec5" stroke-width="1"/>
      <rect x="120" y="105" width="60" height="35" fill="#eceff1" stroke="#b0bec5" stroke-width="1"/>
    </g>
    <rect x="120" y="105" width="60" height="35" fill="#ffcc80" stroke="#ef6c00" stroke-width="2"/>
    <rect x="60" y="105" width="60" height="35" fill="#ffcc80" stroke="#ef6c00" stroke-width="2"/>
    <rect x="120" y="70" width="60" height="35" fill="#ffcc80" stroke="#ef6c00" stroke-width="2"/>
    <rect x="60" y="70" width="60" height="35" fill="#ffcc80" stroke="#ef6c00" stroke-width="2"/>
  </g>
  <text x="300" y="120" fill="#222222" font-family="Arial,Helvetica,sans-serif" font-size="15">Not the full Theorem 3.4 sifting proof.</text>
  <text x="300" y="148" fill="#222222" font-family="Arial,Helvetica,sans-serif" font-size="15">Brute-force: where is the mass? (demo only)</text>
</svg>
